<?xml version="1.0" ?><svg enable-background="new 0 0 64 64" id="Layer_1_1_" version="1.1" viewBox="0 0 64 64" xml:space="preserve" xmlns="http://www.w3.org/2000/svg" xmlns:xlink="http://www.w3.org/1999/xlink"><g><g><path d="M42,63H22c-0.8,0-1.5-0.3-1.8-0.9c-0.4-0.7-0.5-1.6-0.1-2.5c0-0.1,3.9-8.9,3.9-15.6c0-2.6-0.6-4.9-1.9-7.6    c-0.6-1.3-1.2-2.4-1.8-3.5c-2.6-4.9-4.3-8.1-4.3-15c0-3,1.9-15.6,2-16.2L18.1,1h27.7L46,1.8C46.1,2.4,48,15,48,18    c0,6.8-1.7,10.1-4.3,15c-0.6,1.1-1.2,2.2-1.8,3.5C40.6,39.1,40,41.4,40,44c0,6.7,3.9,15.5,3.9,15.6c0.4,0.9,0.4,1.8-0.1,2.5    C43.5,62.7,42.8,63,42,63z M19.9,3C19.4,5.9,18,15.5,18,18c0,6.3,1.5,9.2,4.1,14c0.6,1.1,1.2,2.2,1.8,3.5c1.5,3,2.1,5.5,2.1,8.4    c0,7.1-3.9,16-4.1,16.4c-0.1,0.3-0.1,0.5-0.1,0.6c0,0,0.1,0,0.2,0h20c0.1,0,0.2,0,0.2,0c0,0,0.1-0.2-0.1-0.6    C41.9,60,38,51.1,38,44c0-3,0.6-5.5,2.1-8.4c0.6-1.3,1.3-2.5,1.8-3.5c2.5-4.8,4.1-7.7,4.1-14c0-2.5-1.4-12.1-1.9-15H19.9z" fill="#333333"/></g><g><rect fill="#333333" height="2" width="20" x="22" y="57"/></g><g><rect fill="#333333" height="2" width="30" x="17" y="12"/></g><g><path d="M29,10h-2c0-2.2-1.8-4-4-4s-4,1.8-4,4h-2c0-3.3,2.7-6,6-6S29,6.7,29,10z" fill="#333333"/></g><g><path d="M35,10h-2c0-1.1-0.9-2-2-2s-2,0.9-2,2h-2c0-2.2,1.8-4,4-4C33.2,6,35,7.8,35,10z" fill="#333333"/></g><g><path d="M47,10h-2c0-2.8-2.2-5-5-5s-5,2.2-5,5h-2c0-3.9,3.1-7,7-7S47,6.1,47,10z" fill="#333333"/></g><g><rect fill="#333333" height="2" width="2" x="22" y="20"/></g><g><rect fill="#333333" height="2" width="2" x="26" y="28"/></g><g><rect fill="#333333" height="2" width="2" x="28" y="32"/></g><g><rect fill="#333333" height="2" width="2" x="26" y="53"/></g><g><rect fill="#333333" height="2" width="2" x="28" y="48"/></g></g></svg>